<?xml version="1.0" encoding="UTF-8"?>
<svg xmlns="http://www.w3.org/2000/svg" xmlns:xlink="http://www.w3.org/1999/xlink" width="px" height="px" viewBox="0 0 18 16" version="1.1">
<g id="surface1">
<path style=" stroke:none;fill-rule:nonzero;fill:rgb(0%,84.705883%,100%);fill-opacity:1;" d="M 14.769531 5.179688 C 14.578125 5.113281 14.386719 5.054688 14.191406 5 C 14.226562 4.863281 14.253906 4.734375 14.28125 4.605469 C 14.71875 2.480469 14.433594 0.765625 13.457031 0.203125 C 12.519531 -0.335938 10.984375 0.226562 9.4375 1.574219 C 9.285156 1.707031 9.136719 1.84375 8.992188 1.984375 C 8.894531 1.890625 8.792969 1.800781 8.691406 1.710938 C 7.070312 0.269531 5.445312 -0.339844 4.46875 0.226562 C 3.53125 0.769531 3.253906 2.378906 3.648438 4.390625 C 3.6875 4.589844 3.730469 4.789062 3.78125 4.988281 C 3.550781 5.050781 3.328125 5.121094 3.117188 5.195312 C 1.214844 5.859375 0 6.898438 0 7.976562 C 0 9.089844 1.304688 10.207031 3.285156 10.882812 C 3.445312 10.9375 3.609375 10.988281 3.769531 11.035156 C 3.71875 11.25 3.671875 11.460938 3.628906 11.675781 C 3.253906 13.65625 3.546875 15.226562 4.480469 15.765625 C 5.445312 16.320312 7.066406 15.75 8.640625 14.371094 C 8.769531 14.261719 8.894531 14.144531 9.015625 14.027344 C 9.171875 14.179688 9.335938 14.328125 9.5 14.46875 C 11.027344 15.785156 12.535156 16.316406 13.46875 15.773438 C 14.433594 15.214844 14.746094 13.527344 14.339844 11.476562 C 14.308594 11.3125 14.269531 11.152344 14.230469 10.996094 C 14.34375 10.960938 14.457031 10.925781 14.566406 10.890625 C 16.625 10.207031 17.964844 9.105469 17.964844 7.976562 C 17.964844 6.894531 16.710938 5.847656 14.769531 5.179688 Z M 14.324219 10.160156 C 14.226562 10.195312 14.125 10.226562 14.023438 10.257812 C 13.796875 9.535156 13.488281 8.769531 13.113281 7.980469 C 13.472656 7.207031 13.765625 6.453125 13.988281 5.738281 C 14.171875 5.792969 14.347656 5.847656 14.519531 5.90625 C 16.183594 6.480469 17.199219 7.324219 17.199219 7.976562 C 17.199219 8.671875 16.101562 9.574219 14.324219 10.160156 Z M 13.585938 11.625 C 13.765625 12.53125 13.792969 13.351562 13.671875 13.996094 C 13.566406 14.570312 13.351562 14.957031 13.085938 15.109375 C 12.519531 15.4375 11.308594 15.011719 10 13.886719 C 9.847656 13.753906 9.695312 13.617188 9.550781 13.476562 C 10.054688 12.921875 10.5625 12.28125 11.054688 11.566406 C 11.925781 11.488281 12.746094 11.363281 13.488281 11.1875 C 13.523438 11.332031 13.558594 11.476562 13.585938 11.625 Z M 6.125 15.054688 C 5.570312 15.25 5.132812 15.253906 4.863281 15.101562 C 4.296875 14.773438 4.0625 13.511719 4.382812 11.820312 C 4.421875 11.621094 4.464844 11.421875 4.515625 11.222656 C 5.25 11.386719 6.066406 11.503906 6.9375 11.574219 C 7.433594 12.273438 7.953125 12.917969 8.476562 13.480469 C 8.367188 13.585938 8.253906 13.691406 8.136719 13.792969 C 7.4375 14.402344 6.742188 14.835938 6.125 15.054688 Z M 3.535156 10.15625 C 2.65625 9.859375 1.933594 9.46875 1.4375 9.042969 C 0.992188 8.664062 0.765625 8.285156 0.765625 7.976562 C 0.765625 7.324219 1.742188 6.488281 3.371094 5.921875 C 3.566406 5.851562 3.773438 5.789062 3.988281 5.726562 C 4.210938 6.457031 4.507812 7.222656 4.863281 7.996094 C 4.503906 8.78125 4.203125 9.558594 3.976562 10.296875 C 3.828125 10.253906 3.679688 10.207031 3.535156 10.15625 Z M 4.402344 4.246094 C 4.0625 2.519531 4.289062 1.21875 4.851562 0.890625 C 5.453125 0.542969 6.78125 1.039062 8.183594 2.28125 C 8.273438 2.363281 8.363281 2.445312 8.453125 2.53125 C 7.929688 3.09375 7.414062 3.730469 6.921875 4.425781 C 6.078125 4.503906 5.269531 4.628906 4.527344 4.796875 C 4.480469 4.613281 4.4375 4.429688 4.402344 4.246094 Z M 12.152344 6.160156 C 11.976562 5.855469 11.792969 5.554688 11.605469 5.261719 C 12.179688 5.332031 12.726562 5.429688 13.242188 5.546875 C 13.089844 6.042969 12.894531 6.5625 12.667969 7.09375 C 12.503906 6.777344 12.328125 6.464844 12.152344 6.160156 Z M 8.992188 3.082031 C 9.34375 3.464844 9.699219 3.890625 10.046875 4.355469 C 9.339844 4.324219 8.632812 4.324219 7.925781 4.355469 C 8.273438 3.894531 8.632812 3.46875 8.992188 3.082031 Z M 5.8125 6.164062 C 5.632812 6.46875 5.464844 6.777344 5.304688 7.09375 C 5.082031 6.5625 4.890625 6.042969 4.734375 5.539062 C 5.246094 5.421875 5.792969 5.328125 6.363281 5.257812 C 6.171875 5.554688 5.988281 5.859375 5.8125 6.164062 Z M 6.378906 10.75 C 5.789062 10.683594 5.234375 10.59375 4.722656 10.484375 C 4.878906 9.972656 5.078125 9.4375 5.304688 8.898438 C 5.46875 9.210938 5.636719 9.519531 5.8125 9.828125 C 5.996094 10.140625 6.183594 10.449219 6.378906 10.75 Z M 9.011719 12.925781 C 8.648438 12.535156 8.285156 12.101562 7.929688 11.632812 C 8.277344 11.648438 8.625 11.652344 8.984375 11.652344 C 9.347656 11.652344 9.710938 11.644531 10.066406 11.628906 C 9.71875 12.105469 9.363281 12.539062 9.011719 12.925781 Z M 12.675781 8.871094 C 12.914062 9.417969 13.117188 9.945312 13.277344 10.449219 C 12.757812 10.570312 12.195312 10.664062 11.601562 10.734375 C 11.792969 10.433594 11.976562 10.128906 12.152344 9.820312 C 12.335938 9.507812 12.507812 9.191406 12.675781 8.871094 Z M 11.488281 9.4375 C 11.21875 9.910156 10.929688 10.375 10.628906 10.828125 C 10.082031 10.867188 9.53125 10.886719 8.984375 10.886719 C 8.421875 10.886719 7.878906 10.871094 7.355469 10.835938 C 7.046875 10.382812 6.753906 9.917969 6.476562 9.441406 C 6.203125 8.96875 5.949219 8.488281 5.710938 7.996094 C 5.949219 7.503906 6.203125 7.019531 6.476562 6.546875 C 6.75 6.074219 7.039062 5.609375 7.347656 5.160156 C 7.882812 5.121094 8.429688 5.097656 8.984375 5.097656 C 9.539062 5.097656 10.085938 5.121094 10.621094 5.160156 C 10.925781 5.609375 11.214844 6.070312 11.488281 6.542969 C 11.761719 7.015625 12.019531 7.496094 12.261719 7.984375 C 12.019531 8.476562 11.765625 8.964844 11.488281 9.4375 Z M 13.074219 0.867188 C 13.675781 1.214844 13.90625 2.613281 13.53125 4.449219 C 13.507812 4.566406 13.480469 4.683594 13.449219 4.804688 C 12.703125 4.632812 11.894531 4.507812 11.046875 4.425781 C 10.554688 3.722656 10.042969 3.085938 9.527344 2.53125 C 9.664062 2.402344 9.800781 2.273438 9.941406 2.152344 C 11.269531 1 12.507812 0.542969 13.074219 0.867188 Z M 8.984375 6.371094 C 9.867188 6.371094 10.585938 7.089844 10.585938 7.976562 C 10.585938 8.863281 9.867188 9.582031 8.984375 9.582031 C 8.097656 9.582031 7.378906 8.863281 7.378906 7.976562 C 7.378906 7.089844 8.097656 6.371094 8.984375 6.371094 Z M 8.984375 6.371094 "/>
</g>
</svg>
